<?xml version="1.0"?>
<svg id="Layer_1" data-name="Layer 1" xmlns="http://www.w3.org/2000/svg" version="1.1" viewBox="130 322 1660 470">
  <defs>
    
  </defs>
  <g id="blue">
    <path class="cls-1" d="M1502,328.8l-40.9,30.1.7,36v140c0,38,22,59.8,59.9,59.7,13.7,0,25.5-2.8,37-8.8l3.2-1.7v-37.4l-8.5,4.1c-8.9,4.3-16.2,6-25.1,6-18,0-26.1-7.9-26.1-25.7v-105.3c0,0,60.4,0,60.4,0v-37h-60.4l-.2-60ZM1395.9,328.8c-13.3,0-24.1,10.8-24.1,24.1s10.8,24.1,24.1,24.1,24.1-10.8,24.1-24.2-10.8-24-24.1-24M1148.8,490.5v.7c0,57.7,46.6,104.7,103.7,104.6,42,0,65.9-20.8,82.2-38.9l3.9-4.3-4.3-4-18.1-16.9-4.4-4.1-4.1,4.4c-16.6,17.8-34.2,26.5-53.8,26.5-35.9,0-64.1-29.9-64.1-68.1v-.7c0-38,27.3-67.8,62.2-67.8s40.2,12.9,53.6,26.9l4.3,4.5,4.3-4.6,18.8-19.9,3.9-4.1-3.9-4.1c-29.9-31.7-58.8-35.7-80.6-35.7-57.2.1-103.6,47.4-103.6,105.6M922.7,490.6v.7c0,58.7,46.1,104.7,104.8,104.7,59.3,0,105.8-46.4,105.8-105.5v-.7c0-58.7-46.2-104.7-105.2-104.7-59.2.1-105.5,46.4-105.4,105.5M963.7,490.6v-.7c0-38.6,27.3-67.8,63.6-67.8s64.8,30,64.9,68.5v.7c0,38.4-27.5,67.4-64,67.4s-64.5-29.9-64.5-68.1M723.7,490.8v.7c0,57.7,46.6,104.7,103.7,104.6,42,0,66-20.8,82.2-38.9l3.9-4.3-4.2-4-18.2-16.9-4.3-4.1-4.1,4.4c-16.6,17.8-34.2,26.5-53.8,26.5-35.9,0-64.1-29.9-64.1-68.1v-.7c0-38,27.3-67.8,62.2-67.8s40.2,12.9,53.6,26.9l4.3,4.5,4.3-4.6,18.8-19.9,3.9-4.1-3.9-4.1c-29.9-31.7-58.8-35.7-80.7-35.7-57.2.1-103.6,47.4-103.6,105.6M505.5,490.6v.7c0,59.9,43.5,105.1,101.1,105,34,0,59.5-11.7,82.9-37.8l4-4.5-4.5-4-17.7-15.8-4.3-3.8-4,4.2c-16.5,17.3-33.7,25.1-55.7,25.1s-54.6-20.8-60.3-52.5h144.3c0-.1,5.3-.1,5.3-.1l.6-5.3c.4-3.6.4-6.1.4-9.8,0-62.8-39-106.6-94.8-106.5-54.6-.1-97.3,46.1-97.3,105.1M602.1,421.3c34,0,50,26.2,54.1,52.9h-109.2c5.5-31.4,27.5-52.9,55.1-52.9M416.4,422.8v-33.3h-40.4v196.5c.1,0,.1,6,.1,6h40.4v-81.9c-.1-49.4,27.2-81.4,69.4-81.4h8.2v-42.3l-5.7-.2c-1.2-.1-2.4-.1-3.5-.1-27.3.1-51.7,13.5-68.5,36.7M137.5,492.4v.7c0,2.6.2,5.1.4,7.6l-.4-.7v166.9c.1,0,.1.5.1.5l40.4-18.5v-72.7c17.7,13.6,39.8,21.6,64.3,21.6,59.3,0,105.8-46.4,105.8-105.5v-.7c0-58.7-46.2-104.7-105.2-104.7-59.1,0-105.4,46.4-105.4,105.5M178.6,492.4v-.7c0-38.6,27.3-67.8,63.7-67.8s64.8,30,64.8,68.4v.7c0,38.4-27.5,67.4-64,67.4-36.2.1-64.5-29.8-64.5-68M1783.8,388.6h-34.3l-1.4,3.8-55.9,145.3-63.6-145.5-1.6-3.6h-44.5l3.9,8.4,85.6,187.3c-10.9,24.8-20.3,29.7-32.5,29.7s-18.4-1.8-27.1-6.3l-5.7-3-2.5,5.9-9.6,22.5-2.2,5.2,5.1,2.5c14.7,7.1,27.6,10.2,43.1,10.2,32.1,0,52.1-16.7,68.9-57.5l79.9-196.9,3.3-8v-.2h-8.9v.2ZM1376.5,594.6h41.7v-194h-41.7v194Z"></path>
    <g>
      <path class="cls-2" d="M424.2,775.3h-4.9c-.6,0-1,0-1.4-.4-.4-.3-.6-.6-.8-1.1l-4.4-11.4h-21.1l-4.4,11.4c-.2.4-.4.7-.8,1.1-.4.3-.8.5-1.4.5h-4.9l18.8-47h6.5l18.8,46.9ZM393.4,757.8h17.6l-7.4-19.1c-.5-1.2-1-2.7-1.4-4.4-.2.9-.5,1.7-.7,2.5s-.5,1.4-.7,2l-7.4,19Z"></path>
      <path class="cls-2" d="M490.1,770.7c1.3,0,2.4,0,3.5-.2,1.1,0,2.1-.3,3-.5s1.8-.5,2.7-.9c.8-.3,1.7-.7,2.5-1.2v-10.4h-7.3c-.4,0-.7,0-1-.4s-.4-.5-.4-.9v-3.6h14.4v18.1c-1.2.9-2.4,1.6-3.7,2.2s-2.6,1.2-4.1,1.6c-1.5.4-3,.7-4.7,1-1.7.2-3.5.3-5.4.3-3.4,0-6.5-.6-9.4-1.8-2.8-1.2-5.3-2.8-7.4-4.9-2.1-2.1-3.7-4.6-4.8-7.6-1.1-3-1.7-6.2-1.7-9.7s.6-6.9,1.7-9.8c1.1-3,2.7-5.5,4.8-7.6,2.1-2.1,4.6-3.7,7.6-4.9s6.3-1.7,10-1.7,3.6,0,5.2.4c1.6.3,3.1.7,4.4,1.2,1.4.5,2.6,1.1,3.8,1.9,1.2.7,2.2,1.6,3.2,2.5l-1.8,2.9c-.4.6-.9.9-1.4.9s-.7,0-1.1-.4c-.5-.3-1.2-.7-1.8-1.1-.7-.4-1.5-.9-2.5-1.3-1-.4-2.1-.7-3.4-1s-2.9-.4-4.7-.4c-2.6,0-5,.4-7.2,1.3-2.1.9-4,2.1-5.5,3.7-1.5,1.6-2.7,3.6-3.5,5.8-.8,2.3-1.2,4.9-1.2,7.7s.4,5.6,1.3,8c.8,2.3,2,4.3,3.6,5.9,1.5,1.6,3.3,2.9,5.4,3.7,2,.7,4.3,1.2,6.9,1.2Z"></path>
      <path class="cls-2" d="M559.4,728.3v5.2h-22.6v15.6h18.3v5h-18.3v16h22.6v5.2h-29v-47h29Z"></path>
      <path class="cls-2" d="M586.2,728.5c.3,0,.6.4.9.9l27.2,35.4c0-.6,0-1.1,0-1.7v-34.9h5.6v47h-3.2c-.5,0-.9,0-1.3-.3-.3-.2-.7-.5-1-.9l-27.2-35.4c0,.5,0,1.1,0,1.6v34.9h-5.6v-47h3.3c.6.2,1,.2,1.3.4Z"></path>
      <path class="cls-2" d="M673.4,728.3v5.2h-22.6v15.6h18.3v5h-18.3v16h22.6v5.2h-29v-47h29Z"></path>
      <path class="cls-2" d="M702.7,755.7v19.6h-6.3v-47h13.3c3,0,5.5.3,7.7.9,2.2.6,4,1.5,5.4,2.6s2.5,2.5,3.1,4.1c.7,1.6,1,3.4,1,5.4s-.3,3.2-.8,4.7c-.5,1.4-1.3,2.7-2.3,3.9-1,1.1-2.2,2.1-3.6,2.9-1.4.8-3.1,1.4-4.9,1.8.8.5,1.5,1.1,2.1,2l13.7,18.7h-5.6c-1.2,0-2-.4-2.6-1.3l-12.2-16.8c-.4-.5-.8-.9-1.2-1.1-.4-.2-1.1-.3-2-.3h-4.8ZM702.7,751h6.7c1.9,0,3.5-.2,4.9-.7,1.4-.4,2.6-1.1,3.5-1.9,1-.8,1.7-1.8,2.1-2.9.5-1.1.7-2.4.7-3.8,0-2.8-.9-4.9-2.8-6.3-1.8-1.4-4.6-2.1-8.3-2.1h-7v17.7h.2Z"></path>
      <path class="cls-2" d="M789.8,775.3h-4.9c-.6,0-1,0-1.4-.4-.4-.3-.6-.6-.8-1.1l-4.4-11.4h-21.1l-4.4,11.4c-.2.4-.4.7-.8,1.1-.4.3-.8.5-1.4.5h-4.9l18.8-47h6.5l18.8,46.9ZM759,757.8h17.6l-7.4-19.1c-.5-1.2-1-2.7-1.4-4.4-.2.9-.5,1.7-.7,2.5s-.5,1.4-.7,2l-7.4,19Z"></path>
      <path class="cls-2" d="M836.5,728.3v5.3h-15.2v41.7h-6.3v-41.7h-15.3v-5.3h36.8Z"></path>
      <path class="cls-2" d="M863.9,775.3h-6.4v-47h6.4v47Z"></path>
      <path class="cls-2" d="M933.3,751.8c0,3.5-.6,6.8-1.7,9.7-1.1,2.9-2.7,5.5-4.7,7.6s-4.5,3.8-7.3,4.9c-2.9,1.2-6,1.8-9.5,1.8s-6.6-.6-9.5-1.8c-2.8-1.2-5.3-2.8-7.3-4.9-2-2.1-3.6-4.7-4.7-7.6-1.1-2.9-1.7-6.2-1.7-9.7s.6-6.8,1.7-9.7c1.1-2.9,2.7-5.5,4.7-7.6s4.5-3.8,7.3-5,6-1.8,9.5-1.8,6.6.6,9.5,1.8,5.3,2.8,7.3,5c2,2.1,3.6,4.7,4.7,7.6,1.2,2.9,1.7,6.2,1.7,9.7ZM926.8,751.8c0-2.9-.4-5.5-1.2-7.8s-1.9-4.2-3.3-5.8c-1.4-1.6-3.2-2.8-5.3-3.7s-4.4-1.3-6.9-1.3-4.8.4-6.9,1.3c-2.1.9-3.8,2.1-5.3,3.7-1.5,1.6-2.6,3.5-3.4,5.8-.8,2.3-1.2,4.9-1.2,7.8s.4,5.5,1.2,7.8,1.9,4.2,3.4,5.8,3.2,2.8,5.3,3.6,4.3,1.3,6.9,1.3,4.8-.4,6.9-1.3c2.1-.8,3.8-2.1,5.3-3.6,1.4-1.6,2.6-3.5,3.3-5.8.8-2.3,1.2-4.9,1.2-7.8Z"></path>
      <path class="cls-2" d="M959.7,728.5c.3,0,.6.4.9.9l27.2,35.4c0-.6,0-1.1,0-1.7v-34.9h5.6v47h-3.2c-.5,0-.9,0-1.3-.3-.3-.2-.7-.5-1-.9l-27.2-35.4c0,.5,0,1.1,0,1.6v34.9h-5.6v-47h3.3c.6.2,1,.2,1.3.4Z"></path>
      <path class="cls-2" d="M1056.6,775.3h-4.9c-.6,0-1,0-1.4-.4-.4-.3-.6-.6-.8-1.1l-4.4-11.4h-21.1l-4.4,11.4c-.2.4-.4.7-.8,1.1-.4.3-.8.5-1.4.5h-4.9l18.8-47h6.5l18.8,46.9ZM1025.8,757.8h17.6l-7.4-19.1c-.5-1.2-1-2.7-1.4-4.4-.2.9-.5,1.7-.7,2.5s-.5,1.4-.7,2l-7.4,19Z"></path>
      <path class="cls-2" d="M1082,769.9h20.3v5.3h-26.7v-47h6.4v41.7h0Z"></path>
      <path class="cls-2" d="M1181.5,765.6c.3,0,.7,0,1,.4l2.5,2.7c-1.9,2.2-4.3,4-7,5.2s-6.1,1.9-9.9,1.9-6.5-.6-9.2-1.8-5.1-2.8-7.1-4.9c-1.9-2.1-3.5-4.6-4.5-7.6s-1.6-6.2-1.6-9.7.6-6.8,1.7-9.7c1.1-3,2.8-5.5,4.8-7.6,2.1-2.1,4.6-3.8,7.5-4.9s6.1-1.8,9.6-1.8,6.4.5,8.9,1.6,4.7,2.5,6.7,4.4l-2.1,2.9c-.2.2-.3.4-.5.5s-.5.2-.9.2-.6,0-.9-.3-.7-.5-1.1-.8-1-.6-1.5-1c-.6-.3-1.3-.7-2.1-1-.8-.3-1.8-.6-2.8-.8-1.1-.2-2.3-.3-3.7-.3-2.5,0-4.8.4-6.9,1.3-2.1.9-3.9,2.1-5.4,3.7-1.5,1.6-2.7,3.5-3.5,5.8s-1.3,4.9-1.3,7.7.4,5.5,1.3,7.8c.8,2.3,2,4.2,3.4,5.8,1.5,1.6,3.2,2.8,5.2,3.6s4.1,1.2,6.4,1.2,2.7,0,3.8-.2c1.1-.2,2.1-.4,3.1-.8,1-.3,1.8-.8,2.7-1.3.8-.5,1.6-1.2,2.5-1.9,0-.2.5-.3.9-.3Z"></path>
      <path class="cls-2" d="M1250.1,751.8c0,3.5-.6,6.8-1.7,9.7s-2.7,5.5-4.7,7.6-4.5,3.8-7.3,4.9c-2.9,1.2-6,1.8-9.5,1.8s-6.6-.6-9.5-1.8c-2.8-1.2-5.3-2.8-7.3-4.9-2-2.1-3.6-4.7-4.7-7.6-1.1-2.9-1.7-6.2-1.7-9.7s.6-6.8,1.7-9.7,2.7-5.5,4.7-7.6,4.5-3.8,7.3-5,6-1.8,9.5-1.8,6.6.6,9.5,1.8,5.3,2.8,7.3,5c2,2.1,3.6,4.7,4.7,7.6,1.1,2.9,1.7,6.2,1.7,9.7ZM1243.5,751.8c0-2.9-.4-5.5-1.2-7.8-.8-2.3-1.9-4.2-3.3-5.8s-3.2-2.8-5.3-3.7c-2.1-.9-4.4-1.3-6.9-1.3s-4.8.4-6.9,1.3c-2.1.9-3.8,2.1-5.3,3.7-1.5,1.6-2.6,3.5-3.4,5.8s-1.2,4.9-1.2,7.8.4,5.5,1.2,7.8c.8,2.3,1.9,4.2,3.4,5.8s3.2,2.8,5.3,3.6c2.1.8,4.3,1.3,6.9,1.3s4.8-.4,6.9-1.3c2.1-.8,3.8-2.1,5.3-3.6,1.4-1.6,2.6-3.5,3.3-5.8.9-2.3,1.2-4.9,1.2-7.8Z"></path>
      <path class="cls-2" d="M1295.8,759.9c.2.6.5,1.2.7,1.8.2-.6.4-1.2.7-1.8.2-.6.5-1.1.8-1.7l15.9-28.9c.3-.5.6-.8.9-.9.3,0,.7-.2,1.3-.2h4.7v47h-5.6v-36.1c0-.5,0-1.1,0-1.6l-16.1,29.4c-.5,1-1.3,1.5-2.3,1.5h-.9c-1,0-1.8-.5-2.3-1.5l-16.5-29.5c0,.6,0,1.1,0,1.7v36.1h-5.6v-47h4.7c.6,0,1,0,1.3.2.3,0,.6.4.9.9l16.2,28.9c.5.6.8,1.2,1,1.7Z"></path>
      <path class="cls-2" d="M1352.4,757.7v17.6h-6.3v-47h13.9c3,0,5.6.3,7.8,1s4,1.7,5.5,2.9c1.4,1.3,2.5,2.8,3.2,4.6s1.1,3.8,1.1,6-.4,4.2-1.1,6c-.8,1.8-1.9,3.4-3.4,4.7s-3.3,2.3-5.5,3.1c-2.2.7-4.7,1.1-7.5,1.1h-7.7ZM1352.4,752.6h7.5c1.8,0,3.4-.2,4.8-.7s2.6-1.2,3.5-2c.9-.9,1.7-1.9,2.1-3.1.5-1.2.7-2.5.7-4,0-3-.9-5.3-2.8-7-1.8-1.7-4.6-2.5-8.4-2.5h-7.5v19.3h.1Z"></path>
      <path class="cls-2" d="M1432.8,775.3h-4.9c-.6,0-1,0-1.4-.4-.3-.3-.6-.6-.8-1.1l-4.4-11.4h-21.1l-4.4,11.4c-.2.4-.4.7-.8,1.1-.4.3-.8.5-1.4.5h-4.9l18.8-47h6.5l18.8,46.9ZM1402,757.8h17.6l-7.4-19.1c-.5-1.2-1-2.7-1.4-4.4-.2.9-.5,1.7-.7,2.5s-.5,1.4-.7,2l-7.4,19Z"></path>
      <path class="cls-2" d="M1456.4,728.5c.3,0,.6.4.9.9l27.2,35.4c0-.6,0-1.1,0-1.7v-34.9h5.6v47h-3.2c-.5,0-.9,0-1.3-.3-.3-.2-.7-.5-1-.9l-27.2-35.4c0,.5,0,1.1,0,1.6v34.9h-5.6v-47h3.3c.6.2,1,.2,1.3.4Z"></path>
      <path class="cls-2" d="M1532.7,756.6v18.7h-6.3v-18.7l-17.2-28.3h5.6c.6,0,1,0,1.3.4.3.3.6.6.9,1.1l10.8,18.3c.4.8.8,1.5,1.1,2.2.3.7.6,1.3.8,2,.2-.7.5-1.4.8-2,.3-.7.6-1.4,1.1-2.1l10.7-18.3c.2-.3.5-.7.8-1s.8-.5,1.3-.5h5.6l-17.3,28.2Z"></path>
    </g>
  </g>
  <g id="white" class="cls-4">
    <path class="cls-3" d="M1502,328.8l-40.9,30.1.7,36v140c0,38,22,59.8,59.9,59.7,13.7,0,25.5-2.8,37-8.8l3.2-1.7v-37.4l-8.5,4.1c-8.9,4.3-16.2,6-25.1,6-18,0-26.1-7.9-26.1-25.7v-105.3c0,0,60.4,0,60.4,0v-37h-60.4l-.2-60ZM1395.9,328.8c-13.3,0-24.1,10.8-24.1,24.1s10.8,24.1,24.1,24.1,24.1-10.8,24.1-24.2-10.8-24-24.1-24M1148.8,490.5v.7c0,57.7,46.6,104.7,103.7,104.6,42,0,65.9-20.8,82.2-38.9l3.9-4.3-4.3-4-18.1-16.9-4.4-4.1-4.1,4.4c-16.6,17.8-34.2,26.5-53.8,26.5-35.9,0-64.1-29.9-64.1-68.1v-.7c0-38,27.3-67.8,62.2-67.8s40.2,12.9,53.6,26.9l4.3,4.5,4.3-4.6,18.8-19.9,3.9-4.1-3.9-4.1c-29.9-31.7-58.8-35.7-80.6-35.7-57.2.1-103.6,47.4-103.6,105.6M922.7,490.6v.7c0,58.7,46.1,104.7,104.8,104.7,59.3,0,105.8-46.4,105.8-105.5v-.7c0-58.7-46.2-104.7-105.2-104.7-59.2.1-105.5,46.4-105.4,105.5M963.7,490.6v-.7c0-38.6,27.3-67.8,63.6-67.8s64.8,30,64.9,68.5v.7c0,38.4-27.5,67.4-64,67.4s-64.5-29.9-64.5-68.1M723.7,490.8v.7c0,57.7,46.6,104.7,103.7,104.6,42,0,66-20.8,82.2-38.9l3.9-4.3-4.2-4-18.2-16.9-4.3-4.1-4.1,4.4c-16.6,17.8-34.2,26.5-53.8,26.5-35.9,0-64.1-29.9-64.1-68.1v-.7c0-38,27.3-67.8,62.2-67.8s40.2,12.9,53.6,26.9l4.3,4.5,4.3-4.6,18.8-19.9,3.9-4.1-3.9-4.1c-29.9-31.7-58.8-35.7-80.7-35.7-57.2.1-103.6,47.4-103.6,105.6M505.5,490.6v.7c0,59.9,43.5,105.1,101.1,105,34,0,59.5-11.7,82.9-37.8l4-4.5-4.5-4-17.7-15.8-4.3-3.8-4,4.2c-16.5,17.3-33.7,25.1-55.7,25.1s-54.6-20.8-60.3-52.5h144.3c0-.1,5.3-.1,5.3-.1l.6-5.3c.4-3.6.4-6.1.4-9.8,0-62.8-39-106.6-94.8-106.5-54.6-.1-97.3,46.1-97.3,105.1M602.1,421.3c34,0,50,26.2,54.1,52.9h-109.2c5.5-31.4,27.5-52.9,55.1-52.9M416.4,422.8v-33.3h-40.4v196.5c.1,0,.1,6,.1,6h40.4v-81.9c-.1-49.4,27.2-81.4,69.4-81.4h8.2v-42.3l-5.7-.2c-1.2-.1-2.4-.1-3.5-.1-27.3.1-51.7,13.5-68.5,36.7M137.5,492.4v.7c0,2.6.2,5.1.4,7.6l-.4-.7v166.9c.1,0,.1.5.1.5l40.4-18.5v-72.7c17.7,13.6,39.8,21.6,64.3,21.6,59.3,0,105.8-46.4,105.8-105.5v-.7c0-58.7-46.2-104.7-105.2-104.7-59.1,0-105.4,46.4-105.4,105.5M178.6,492.4v-.7c0-38.6,27.3-67.8,63.7-67.8s64.8,30,64.8,68.4v.7c0,38.4-27.5,67.4-64,67.4-36.2.1-64.5-29.8-64.5-68M1783.8,388.6h-34.3l-1.4,3.8-55.9,145.3-63.6-145.5-1.6-3.6h-44.5l3.9,8.4,85.6,187.3c-10.9,24.8-20.3,29.7-32.5,29.7s-18.4-1.8-27.1-6.3l-5.7-3-2.5,5.9-9.6,22.5-2.2,5.2,5.1,2.5c14.7,7.1,27.6,10.2,43.1,10.2,32.1,0,52.1-16.7,68.9-57.5l79.9-196.9,3.3-8v-.2h-8.9v.2ZM1376.5,594.6h41.7v-194h-41.7v194Z"></path>
    <g>
      <path class="cls-2" d="M424.2,775.3h-4.9c-.6,0-1,0-1.4-.4-.4-.3-.6-.6-.8-1.1l-4.4-11.4h-21.1l-4.4,11.4c-.2.4-.4.7-.8,1.1-.4.3-.8.5-1.4.5h-4.9l18.8-47h6.5l18.8,46.9ZM393.4,757.8h17.6l-7.4-19.1c-.5-1.2-1-2.7-1.4-4.4-.2.9-.5,1.7-.7,2.5s-.5,1.4-.7,2l-7.4,19Z"></path>
      <path class="cls-2" d="M490.1,770.7c1.3,0,2.4,0,3.5-.2,1.1,0,2.1-.3,3-.5s1.8-.5,2.7-.9c.8-.3,1.7-.7,2.5-1.2v-10.4h-7.3c-.4,0-.7,0-1-.4s-.4-.5-.4-.9v-3.6h14.4v18.1c-1.2.9-2.4,1.6-3.7,2.2s-2.6,1.2-4.1,1.6c-1.5.4-3,.7-4.7,1-1.7.2-3.5.3-5.4.3-3.4,0-6.5-.6-9.4-1.8-2.8-1.2-5.3-2.8-7.4-4.9-2.1-2.1-3.7-4.6-4.8-7.6-1.1-3-1.7-6.2-1.7-9.7s.6-6.9,1.7-9.8c1.1-3,2.7-5.5,4.8-7.6,2.1-2.1,4.6-3.7,7.6-4.9s6.3-1.7,10-1.7,3.6,0,5.2.4c1.6.3,3.1.7,4.4,1.2,1.4.5,2.6,1.1,3.8,1.9,1.2.7,2.2,1.6,3.2,2.5l-1.8,2.9c-.4.6-.9.9-1.4.9s-.7,0-1.1-.4c-.5-.3-1.2-.7-1.8-1.1-.7-.4-1.5-.9-2.5-1.3-1-.4-2.1-.7-3.4-1s-2.9-.4-4.7-.4c-2.6,0-5,.4-7.2,1.3-2.1.9-4,2.1-5.5,3.7-1.5,1.6-2.7,3.6-3.5,5.8-.8,2.3-1.2,4.9-1.2,7.7s.4,5.6,1.3,8c.8,2.3,2,4.3,3.6,5.9,1.5,1.6,3.3,2.9,5.4,3.7,2,.7,4.3,1.2,6.9,1.2Z"></path>
      <path class="cls-2" d="M559.4,728.3v5.2h-22.6v15.6h18.3v5h-18.3v16h22.6v5.2h-29v-47h29Z"></path>
      <path class="cls-2" d="M586.2,728.5c.3,0,.6.4.9.9l27.2,35.4c0-.6,0-1.1,0-1.7v-34.9h5.6v47h-3.2c-.5,0-.9,0-1.3-.3-.3-.2-.7-.5-1-.9l-27.2-35.4c0,.5,0,1.1,0,1.6v34.9h-5.6v-47h3.3c.6.2,1,.2,1.3.4Z"></path>
      <path class="cls-2" d="M673.4,728.3v5.2h-22.6v15.6h18.3v5h-18.3v16h22.6v5.2h-29v-47h29Z"></path>
      <path class="cls-2" d="M702.7,755.7v19.6h-6.3v-47h13.3c3,0,5.5.3,7.7.9,2.2.6,4,1.5,5.4,2.6s2.5,2.5,3.1,4.1c.7,1.6,1,3.4,1,5.4s-.3,3.2-.8,4.7c-.5,1.4-1.3,2.7-2.3,3.9-1,1.1-2.2,2.1-3.6,2.9-1.4.8-3.1,1.4-4.9,1.8.8.5,1.5,1.1,2.1,2l13.7,18.7h-5.6c-1.2,0-2-.4-2.6-1.3l-12.2-16.8c-.4-.5-.8-.9-1.2-1.1-.4-.2-1.1-.3-2-.3h-4.8ZM702.7,751h6.7c1.9,0,3.5-.2,4.9-.7,1.4-.4,2.6-1.1,3.5-1.9,1-.8,1.7-1.8,2.1-2.9.5-1.1.7-2.4.7-3.8,0-2.8-.9-4.9-2.8-6.3-1.8-1.4-4.6-2.1-8.3-2.1h-7v17.7h.2Z"></path>
      <path class="cls-2" d="M789.8,775.3h-4.9c-.6,0-1,0-1.4-.4-.4-.3-.6-.6-.8-1.1l-4.4-11.4h-21.1l-4.4,11.4c-.2.4-.4.7-.8,1.1-.4.3-.8.5-1.4.5h-4.9l18.8-47h6.5l18.8,46.9ZM759,757.8h17.6l-7.4-19.1c-.5-1.2-1-2.7-1.4-4.4-.2.9-.5,1.7-.7,2.5s-.5,1.4-.7,2l-7.4,19Z"></path>
      <path class="cls-2" d="M836.5,728.3v5.3h-15.2v41.7h-6.3v-41.7h-15.3v-5.3h36.8Z"></path>
      <path class="cls-2" d="M863.9,775.3h-6.4v-47h6.4v47Z"></path>
      <path class="cls-2" d="M933.3,751.8c0,3.5-.6,6.8-1.7,9.7-1.1,2.9-2.7,5.5-4.7,7.6s-4.5,3.8-7.3,4.9c-2.9,1.2-6,1.8-9.5,1.8s-6.6-.6-9.5-1.8c-2.8-1.2-5.3-2.8-7.3-4.9-2-2.1-3.6-4.7-4.7-7.6-1.1-2.9-1.7-6.2-1.7-9.7s.6-6.8,1.7-9.7c1.1-2.9,2.7-5.5,4.7-7.6s4.5-3.8,7.3-5,6-1.8,9.5-1.8,6.6.6,9.5,1.8,5.3,2.8,7.3,5c2,2.1,3.6,4.7,4.7,7.6,1.2,2.9,1.7,6.2,1.7,9.7ZM926.8,751.8c0-2.9-.4-5.5-1.2-7.8s-1.9-4.2-3.3-5.8c-1.4-1.6-3.2-2.8-5.3-3.7s-4.4-1.3-6.9-1.3-4.8.4-6.9,1.3c-2.1.9-3.8,2.1-5.3,3.7-1.5,1.6-2.6,3.5-3.4,5.8-.8,2.3-1.2,4.9-1.2,7.8s.4,5.5,1.2,7.8,1.9,4.2,3.4,5.8,3.2,2.8,5.3,3.6,4.3,1.3,6.9,1.3,4.8-.4,6.9-1.3c2.1-.8,3.8-2.1,5.3-3.6,1.4-1.6,2.6-3.5,3.3-5.8.8-2.3,1.2-4.9,1.2-7.8Z"></path>
      <path class="cls-2" d="M959.7,728.5c.3,0,.6.4.9.9l27.2,35.4c0-.6,0-1.1,0-1.7v-34.9h5.6v47h-3.2c-.5,0-.9,0-1.3-.3-.3-.2-.7-.5-1-.9l-27.2-35.4c0,.5,0,1.1,0,1.6v34.9h-5.6v-47h3.3c.6.2,1,.2,1.3.4Z"></path>
      <path class="cls-2" d="M1056.6,775.3h-4.9c-.6,0-1,0-1.4-.4-.4-.3-.6-.6-.8-1.1l-4.4-11.4h-21.1l-4.4,11.4c-.2.4-.4.7-.8,1.1-.4.3-.8.5-1.4.5h-4.9l18.8-47h6.5l18.8,46.9ZM1025.8,757.8h17.6l-7.4-19.1c-.5-1.2-1-2.7-1.4-4.4-.2.9-.5,1.7-.7,2.5s-.5,1.4-.7,2l-7.4,19Z"></path>
      <path class="cls-2" d="M1082,769.9h20.3v5.3h-26.7v-47h6.4v41.7h0Z"></path>
      <path class="cls-2" d="M1181.5,765.6c.3,0,.7,0,1,.4l2.5,2.7c-1.9,2.2-4.3,4-7,5.2s-6.1,1.9-9.9,1.9-6.5-.6-9.2-1.8-5.1-2.8-7.1-4.9c-1.9-2.1-3.5-4.6-4.5-7.6s-1.6-6.2-1.6-9.7.6-6.8,1.7-9.7c1.1-3,2.8-5.5,4.8-7.6,2.1-2.1,4.6-3.8,7.5-4.9s6.1-1.8,9.6-1.8,6.4.5,8.9,1.6,4.7,2.5,6.7,4.4l-2.1,2.9c-.2.2-.3.4-.5.5s-.5.2-.9.2-.6,0-.9-.3-.7-.5-1.1-.8-1-.6-1.5-1c-.6-.3-1.3-.7-2.1-1-.8-.3-1.8-.6-2.8-.8-1.1-.2-2.3-.3-3.7-.3-2.5,0-4.8.4-6.9,1.3-2.1.9-3.9,2.1-5.4,3.7-1.5,1.6-2.7,3.5-3.5,5.8s-1.3,4.9-1.3,7.7.4,5.5,1.3,7.8c.8,2.3,2,4.2,3.4,5.8,1.5,1.6,3.2,2.8,5.2,3.6s4.1,1.2,6.4,1.2,2.7,0,3.8-.2c1.1-.2,2.1-.4,3.1-.8,1-.3,1.8-.8,2.7-1.3.8-.5,1.6-1.2,2.5-1.9,0-.2.5-.3.9-.3Z"></path>
      <path class="cls-2" d="M1250.1,751.8c0,3.5-.6,6.8-1.7,9.7s-2.7,5.5-4.7,7.6-4.5,3.8-7.3,4.9c-2.9,1.2-6,1.8-9.5,1.8s-6.6-.6-9.5-1.8c-2.8-1.2-5.3-2.8-7.3-4.9-2-2.1-3.6-4.7-4.7-7.6-1.1-2.9-1.7-6.2-1.7-9.7s.6-6.8,1.7-9.7,2.7-5.5,4.7-7.6,4.5-3.8,7.3-5,6-1.8,9.5-1.8,6.6.6,9.5,1.8,5.3,2.8,7.3,5c2,2.1,3.6,4.7,4.7,7.6,1.1,2.9,1.7,6.2,1.7,9.7ZM1243.5,751.8c0-2.9-.4-5.5-1.2-7.8-.8-2.3-1.9-4.2-3.3-5.8s-3.2-2.8-5.3-3.7c-2.1-.9-4.4-1.3-6.9-1.3s-4.8.4-6.9,1.3c-2.1.9-3.8,2.1-5.3,3.7-1.5,1.6-2.6,3.5-3.4,5.8s-1.2,4.9-1.2,7.8.4,5.5,1.2,7.8c.8,2.3,1.9,4.2,3.4,5.8s3.2,2.8,5.3,3.6c2.1.8,4.3,1.3,6.9,1.3s4.8-.4,6.9-1.3c2.1-.8,3.8-2.1,5.3-3.6,1.4-1.6,2.6-3.5,3.3-5.8.9-2.3,1.2-4.9,1.2-7.8Z"></path>
      <path class="cls-2" d="M1295.8,759.9c.2.6.5,1.2.7,1.8.2-.6.4-1.2.7-1.8.2-.6.5-1.1.8-1.7l15.9-28.9c.3-.5.6-.8.9-.9.3,0,.7-.2,1.3-.2h4.7v47h-5.6v-36.1c0-.5,0-1.1,0-1.6l-16.1,29.4c-.5,1-1.3,1.5-2.3,1.5h-.9c-1,0-1.8-.5-2.3-1.5l-16.5-29.5c0,.6,0,1.1,0,1.7v36.1h-5.6v-47h4.7c.6,0,1,0,1.3.2.3,0,.6.4.9.9l16.2,28.9c.5.6.8,1.2,1,1.7Z"></path>
      <path class="cls-2" d="M1352.4,757.7v17.6h-6.3v-47h13.9c3,0,5.6.3,7.8,1s4,1.7,5.5,2.9c1.4,1.3,2.5,2.8,3.2,4.6s1.1,3.8,1.1,6-.4,4.2-1.1,6c-.8,1.8-1.9,3.4-3.4,4.7s-3.3,2.3-5.5,3.1c-2.2.7-4.7,1.1-7.5,1.1h-7.7ZM1352.4,752.6h7.5c1.8,0,3.4-.2,4.8-.7s2.6-1.2,3.5-2c.9-.9,1.7-1.9,2.1-3.1.5-1.2.7-2.5.7-4,0-3-.9-5.3-2.8-7-1.8-1.7-4.6-2.5-8.4-2.5h-7.5v19.3h.1Z"></path>
      <path class="cls-2" d="M1432.8,775.3h-4.9c-.6,0-1,0-1.4-.4-.3-.3-.6-.6-.8-1.1l-4.4-11.4h-21.1l-4.4,11.4c-.2.4-.4.7-.8,1.1-.4.3-.8.5-1.4.5h-4.9l18.8-47h6.5l18.8,46.9ZM1402,757.8h17.6l-7.4-19.1c-.5-1.2-1-2.7-1.4-4.4-.2.9-.5,1.7-.7,2.5s-.5,1.4-.7,2l-7.4,19Z"></path>
      <path class="cls-2" d="M1456.4,728.5c.3,0,.6.4.9.9l27.2,35.4c0-.6,0-1.1,0-1.7v-34.9h5.6v47h-3.2c-.5,0-.9,0-1.3-.3-.3-.2-.7-.5-1-.9l-27.2-35.4c0,.5,0,1.1,0,1.6v34.9h-5.6v-47h3.3c.6.2,1,.2,1.3.4Z"></path>
      <path class="cls-2" d="M1532.7,756.6v18.7h-6.3v-18.7l-17.2-28.3h5.6c.6,0,1,0,1.3.4.3.3.6.6.9,1.1l10.8,18.3c.4.8.8,1.5,1.1,2.2.3.7.6,1.3.8,2,.2-.7.5-1.4.8-2,.3-.7.6-1.4,1.1-2.1l10.7-18.3c.2-.3.5-.7.8-1s.8-.5,1.3-.5h5.6l-17.3,28.2Z"></path>
    </g>
  </g>
</svg>